<?xml version="1.0" encoding="UTF-8" standalone="no"?>
<svg
   width="270"
   height="56"
   viewBox="0 0 270 56"
   version="1.1"
   id="svg20"
   sodipodi:docname="i-site-logo.svg"
   inkscape:version="1.3.2 (091e20e, 2023-11-25, custom)"
   xmlns:inkscape="http://www.inkscape.org/namespaces/inkscape"
   xmlns:sodipodi="http://sodipodi.sourceforge.net/DTD/sodipodi-0.dtd"
   xmlns="http://www.w3.org/2000/svg"
   xmlns:svg="http://www.w3.org/2000/svg">
  <defs
     id="defs20" />
  <sodipodi:namedview
     id="namedview20"
     pagecolor="#ffffff"
     bordercolor="#666666"
     borderopacity="1.0"
     inkscape:showpageshadow="2"
     inkscape:pageopacity="0.0"
     inkscape:pagecheckerboard="0"
     inkscape:deskcolor="#d1d1d1"
     inkscape:zoom="3.0196078"
     inkscape:cx="151.17857"
     inkscape:cy="87.262987"
     inkscape:window-width="1920"
     inkscape:window-height="1017"
     inkscape:window-x="1912"
     inkscape:window-y="-8"
     inkscape:window-maximized="1"
     inkscape:current-layer="g20" />
  <g
     fill="none"
     id="g20">
    <path
       d="M 56.6,43.5 C 56.5,42.2 55.7,40.9 54.4,40.2 54.3,39.8 54.2,39.4 53.9,39.1 53.4,38.5 52.7,38.3 52,38.2 51.5,35.3 49.9,32.6 47.5,30.8 47.6,30.4 47.6,30 47.6,29.6 v -0.5 c 0,-0.9 0,-1.7 -0.1,-2.6 -0.4,-2.6 -1.4,-5 -2.7,-7.2 -1.7,-2.8 -3.9,-5.2 -5.8,-7.9 -0.7,-1 -1.3,-2.1 -1.5,-3.3 -0.2,-0.9 -0.1,-1.8 0.1,-2.7 0.2,-1 0.8,-1.9 1.5,-2.7 0.7,-0.8 1.5,-1.4 2.4,-1.9 0.1,0 0.1,-0.1 0.2,-0.2 V 0.3 C 41.6,0.1 41.5,0.1 41.3,0.1 c -0.5,0.1 -1,0.3 -1.4,0.5 -4,1.5 -7.9,3.5 -11.4,5.9 -2.5,1.8 -4.9,3.8 -7,6.1 -2.9,3.2 -5.1,7.1 -6.2,11.3 -0.6,2.2 -0.8,4.4 -0.5,6.6 -0.7,0.4 -1.4,0.8 -2.3,0.6 -0.9,-0.1 -1.6,-0.7 -2.2,-1.3 0.3,-0.4 0.5,-0.9 0.5,-1.4 v -0.8 c -0.1,-0.5 -0.2,-0.9 -0.5,-1.3 0.3,-0.8 0.6,-1.6 0.5,-2.5 -0.1,-0.8 -0.4,-1.6 -0.6,-2.4 -0.1,-0.4 -0.1,-0.8 0,-1.2 0.2,-1 0.9,-1.7 1.4,-2.5 0.3,-0.4 0.6,-0.9 0.5,-1.4 0,-0.5 -0.3,-1 -0.8,-1.3 -1.2,-0.8 -3,-0.6 -3.9,0.5 -0.8,0.9 -1,2.4 -0.7,3.6 0,0.1 0.2,1 0.3,1 -1.7,-0.6 -4.2,-0.9 -5.5,0.6 -0.6,0.7 -0.6,1.6 -0.4,2.4 -0.1,0.3 -0.3,0.7 -0.3,1 -0.1,0.6 0.1,1.2 0.3,1.7 -0.1,0.2 -0.2,0.5 -0.3,0.7 -0.3,1.1 0.1,2.4 1,3.1 0.8,0.6 1.9,0.8 2.9,0.7 0.1,0 0.4,-0.1 0.4,0 0.8,0.6 1.9,0.9 3,0.7 0.6,0.7 1.4,1.4 2.2,1.8 0.7,0.4 1.5,0.6 2.3,0.7 0.9,0 1.8,-0.2 2.6,-0.6 0.4,1.1 0.8,2.2 1.5,3.2 1.9,3.1 5,5.5 8.4,6.7 0,1.4 0.1,2.8 0.3,4.1 0,0.3 0.1,0.5 0.1,0.8 -0.7,0 -1.5,0 -2.2,0.1 -2.4,0.3 -4.9,1.1 -6.8,2.7 -0.6,0.5 -1.1,1.3 -1.2,2.1 0,0.4 0,0.8 0.1,1.1 0.4,1 1.4,1.5 2.4,1.7 1.1,0.3 2.3,0.4 3.5,0.3 2.4,-0.2 4.8,-1.2 6.7,-2.7 0.8,-0.7 2.2,-1.7 2.1,-2.9 0,-0.4 -0.2,-0.8 -0.5,-1 -0.4,-0.4 -0.9,-0.7 -1.5,-0.9 -0.1,-0.4 -0.1,-0.7 -0.2,-1.1 -0.1,-1.2 -0.2,-2.3 -0.3,-3.5 0.5,0.1 0.9,0.2 1.4,0.2 1.5,0.2 2.9,0.2 4.4,0 -0.1,0.8 -0.1,1.6 -0.2,2.4 l -0.3,2.1 c 0,0.1 -0.5,0.3 -0.6,0.3 -0.2,0.1 -0.4,0.3 -0.6,0.4 -0.5,0.4 -0.9,1 -0.8,1.7 0.2,0.9 1.1,1.8 1.8,2.3 2,1.6 4.5,2.7 7.1,2.9 0.7,0.1 1.4,0.1 2.1,0 0.8,-0.1 1.9,-0.2 2.6,-0.7 0.6,-0.4 1.1,-1.2 1.1,-2 0,-0.8 -0.3,-1.5 -0.7,-2.1 L 44,50.2 c -0.5,-0.4 -1.1,-0.8 -1.7,-1.1 -1.7,-0.8 -3.5,-1.3 -5.4,-1.3 h -1.2 c 0.1,0 0.3,-3.3 0.3,-3.7 l 0.1,-0.9 c 3.2,-1 6.1,-3 8.2,-5.7 1,-1.3 1.9,-2.8 2.5,-4.4 1.4,1.4 2.3,3.2 2.7,5.1 -0.3,0.1 -0.5,0.3 -0.7,0.5 -0.5,0.4 -0.7,1.1 -0.7,1.7 -0.5,0.3 -0.9,0.7 -1.2,1.2 C 46.4,42.3 46,43 46,43.9 v 0.8 c 0.1,0.7 0.3,1.3 0.8,1.8 0.4,0.4 1,0.6 1.6,0.7 0.1,0.5 0.3,1 0.7,1.3 0.4,0.5 1,0.7 1.5,0.8 0.5,0.1 1,0 1.4,-0.1 0.4,-0.2 0.7,-0.4 0.9,-0.7 0.3,0.1 0.5,0.1 0.8,0.1 0.7,0 1.5,-0.3 1.9,-1 0.3,-0.5 0.5,-1.1 0.4,-1.7 0.6,-0.4 0.7,-1.6 0.6,-2.4 z"
       fill="#161610"
       id="path1"
       sodipodi:nodetypes="cccccsscccccscccccccccccscccsccccccccccccccccccccccccccccscccccccccccccccccscccscccccccccscsccsccsccc" />
    <path
       d="m 46.7,28.8 c -0.1,1.9 -0.6,3.8 -1.5,5.5 -1.3,2.6 -3.4,4.9 -5.9,6.5 -5.6,3.4 -12.9,2.7 -18,-1.2 -2.7,-2.1 -4.5,-5.2 -5.2,-8.6 -0.7,-3.6 0.2,-7.3 1.7,-10.6 0.1,-0.3 0.3,-0.6 0.4,-0.9 C 20.7,14.6 24.5,10.6 28.9,7.4 32,5.1 35.5,3.2 39,1.7 37.7,3 36.8,4.8 36.7,6.6 c 0,1.3 0.2,2.5 0.7,3.7 0.4,1 1.1,1.9 1.7,2.7 1.4,1.8 2.8,3.6 4,5.5 0.923933,1.343902 1.724403,2.723078 2.334747,4.144937 C 46.277709,24.608704 46.758003,26.653886 46.7,28.8 Z"
       fill="#3cb4e5"
       id="path2"
       sodipodi:nodetypes="cccccccccccccsc" />
    <path
       d="M27.9 15.3c.8-.1 2.1.1 2 1.1-.1.4-.4.6-.7.6-.6 0-1.1 0-1.7.1-1.2.3-2.4.9-3.3 1.7-.1.1-.3.4-.5.4-.3.1-.2-.3-.1-.4.3-.6.7-1.1 1.1-1.6.4-.5 1-.9 1.5-1.2.4-.3.9-.5 1.4-.6.1 0 .2-.1.3-.1zm5.2.7c.1-.1.2-.2.4-.3.3-.2.6-.2 1-.2s.6.2.9.3c1.6.7 2.9 2.2 3.4 3.9 0 .1.1.4 0 .5-.1.2-.4-.2-.5-.3-1.1-1.4-2.7-2.4-4.5-2.7-.3-.1-.6-.1-.8-.3-.1-.2-.2-.5-.1-.7.1 0 .2-.1.2-.2zm-6.3 2.5c.5-.1 1.1 0 1.5.4 1.2.8 1.7 2.4 1.8 3.7.1 1.4 0 2.9-.8 4.1-.4.6-1 1.1-1.7 1.1s-1.4-.4-1.9-.9c-.9-1.1-1.3-2.6-1.3-4 0-1.1.2-2.2.8-3.2.3-.4.6-.8 1.1-1 .1-.1.3-.2.5-.2zm7.8.2c.5-.1 1.1 0 1.5.3.7.5 1.1 1.4 1.2 2.2 0 .4.1.7 0 1.1-.1 1.2-.4 2.4-1 3.5-.4.7-.8 1.4-1.4 1.9-.5.5-1.2 1-2 1.1-.6.1-1.3-.1-1.7-.5-.5-.5-.8-1.3-.9-2-.2-1.3.1-2.5.5-3.7.3-.9.8-1.7 1.4-2.4.7-.7 1.4-1.3 2.4-1.5z"
       fill="#161610"
       id="path3" />
    <path
       d="M21.3 28c.2-.5.5-.9 1-1.2.2-.1.4-.3.7-.3.2-.1.7-.2.8.1.1.2-.2.5-.4.5s-.4 0-.6.1c.2.7.6 1.3 1.1 1.8.9.9 2 1.5 3.1 2 2.1.8 4.5.9 6.7.4 1.5-.4 2.9-1.1 3.8-2.3.1-.1.2-.2.2-.3-.2-.1-.5-.1-.6-.3-.1-.2 0-.3.1-.5.3-.1.6.1.8.2.7.4 1.1 1.3 1.2 2.1 0 0 0 .1-.1.1h-.2c-.1-.5-.3-.9-.7-1.3-.4 2.3-1.4 4.4-3.1 6-1.3 1.2-3.1 2-4.9 2.1h-.9c-2-.1-3.9-1.1-5.2-2.7-.1-.1-.1-.3.1-.4.1-.1.2 0 .3 0 .2.3.5.5.7.8l.6-.3c0-.7 0-1.3-.1-1.9-.1-.6-.4-1.3-.6-1.9-.8-.5-1.6-1-2.1-1.8-.3-.4-.6-.9-.8-1.5-.3.2-.5.5-.7.8 0 .1-.1.1-.2.1-.1-.1-.1-.3 0-.4z"
       fill="#161610"
       id="path4" />
    <path
       d="M25.6 35.1c.8.7 1.8 1.2 2.8 1.4 1.8.4 3.7 0 5.3-1-1-.6-2.1-.9-3.2-1-.7 0-1.3.5-1.7 1-.1.1-.3.1-.3-.1.2-.4.5-.7.9-1.1-1.3.1-2.6.2-3.8.8z"
       fill="#E1251B"
       id="path5" />
    <path
       d="M2.4 21c.2-.2.5-.3.7-.4.9-.3 1.8-.2 2.7 0 1 .3 2.8.8 3 2 .2 1.3-1.3 1.9-2.3 2-1 .1-2.1-.1-3.1-.4-.6-.2-1.3-.6-1.6-1.2-.2-.7.1-1.5.6-2zm-.7 2.9c.4.3.8.6 1.2.7 1.7.6 3.7.9 5.4.1.4.7.5 1.5 0 2.2-.4.5-1 .8-1.6 1-1.5.3-3.2-.2-4.3-1.3-.5-.5-.9-1.2-.8-2 0-.3.1-.5.1-.7z"
       fill="#FFF"
       id="path6" />
    <path
       d="M4.6 30.1c-1.5-.1-3.2-1.1-3-2.8 0-.3.1-.5.2-.8 1.1 1.4 2.9 2.1 4.6 1.9.4 0 .8-.1 1.1-.3.1.4 0 .8-.3 1.1-.6.8-1.7 1-2.6.9zm5.5-1c-.3.6-.8 1.1-1.4 1.3-.7.3-1.5.3-2.2 0 .4-.2.8-.3 1.1-.6.2-.2.3-.5.6-.6.8-.5 1.4-1.2 1.9-1.9.2.5.2 1.2 0 1.8zm-.2-3c-.4.9-1 1.6-1.8 2.3-.1-.1-.1-.2-.2-.3.8-.5 1.5-1.4 1.4-2.4-.1-.5-.2-.9-.5-1.3.3-.3.6-.7.6-1.1 0-.4 0-.8-.1-1.2-.3-.6-.8-1.1-1.5-1.3h-.2l.3-.3c.4.1.9 0 1.2-.3.1-.1.1-.2.1-.3-.4 0-.8.3-1.2.2-.4-.2-.5-.7-.6-1.2-.1-.7-.1-1.4.2-2.1.3-.7.9-1.3 1.7-1.4h.1c.7-.1 1.4.1 1.9.5.3.2.4.6.3 1-.1.5-.5.9-.7 1.3-.3.5-.7 1-.9 1.5-.2.4-.2.8-.3 1.2 0 1.1.5 2.1.6 3.1.1.8-.1 1.5-.4 2.1zm13.9 22.8c.5.2 1 .6 1.4.9-.1.1-.2.1-.3.2-.5-.4-.9-.8-1.5-1.1.1 0 .2-.1.4 0zm-.9.1c.6.2 1.1.7 1.6 1.1-.1 0-.2.1-.2.1-.6-.5-1.2-.9-1.8-1.2.1 0 .2-.1.4 0zm-1.1.2c.8.2 1.5.7 2.1 1.2-.1.1-.3.1-.4.2-.7-.6-1.4-1.1-2.3-1.3.2-.1.4-.1.6-.1zm-5.3 3.1c0-.1 0-.2.1-.4.3-.6.9-1.1 1.4-1.3.8-.3 1.7-.1 2.5.1.9.2 1.7.6 2.4 1.2s1.2 1.2 1.6 2c-.7.2-1.5.4-2.2.5-.5.1-1.1.1-1.6.1-1.2 0-2.5-.2-3.5-.9-.5-.4-.8-.8-.7-1.3z"
       fill="#FFF"
       id="path7" />
    <path
       d="M27.6 53.1c-2.1 1.5-4.9 2.4-7.6 2.4-.9 0-1.8-.1-2.6-.5-.3-.2-.6-.4-.8-.7-.2-.3-.3-.7-.4-1 .3.4.7.7 1.1.9.7.4 1.6.6 2.5.6 1.9.1 3.8-.3 5.5-.9 1.3-.5 2.6-1.1 3.5-2 .2-.1.3-.3.5-.4-.5.6-1.1 1.1-1.7 1.6z"
       fill="#FFF"
       id="path8" />
    <path
       d="M28.3 49.2c.5.2.9.4 1.2.8.1.2 0 .4 0 .6-.2.4-.5.8-.8 1.1a9.5 9.5 0 01-3.8 2.1c-.6-.9-1.2-1.7-2.1-2.3-.9-.7-2.1-1.1-3.2-1.2h-.7c.5-.2.9-.4 1.4-.6.7-.1 1.3.2 1.9.6.5.2.9.5 1.2.9.6-.3 1.3-.5 1.9-.8.2-.1.3-.3.3-.5-.3-.4-.7-.7-1.2-.9.4-.1.9 0 1.4-.1 0 .3.1.7.4.9.3.4.9.5 1.4.4.3-.3.6-.6.7-1z"
       fill="#E1251B"
       id="path9" />
    <path
       d="M45.2 53.4c-.1.4-.2.8-.5 1.1-1.5 1.6-4.4 1.2-6.3.7-.7-.2-1.3-.4-2-.6-1.3-.5-2.6-1.3-3.7-2.3-.2-.2-.4-.5-.6-.7.5.5 1 .9 1.5 1.3.6.4 1.3.7 2 1 2 .8 4.3 1.3 6.5 1 .7-.1 1.5-.3 2.1-.7.4-.2.7-.5 1-.8z"
       fill="#FFF"
       id="path10" />
    <path
       d="M43.5 50.9c.7.3 1.8 1.2 1.3 2.1-.2.4-.6.7-1 .9-1 .6-2.2.7-3.3.7-.6 0-1.2-.1-1.7-.2-.3 0-.7-.1-1-.2-.1 0-.9-.3-1-.2.4-.6.8-1.1 1.3-1.6 1.1-1.1 2.9-1.8 4.5-1.8l.9.3zm-3.4-1.4c-.8.3-1.6.7-2.2 1.3-.1-.1-.3-.1-.4-.2.6-.5 1.3-.9 2-1.2.2-.1.4 0 .6.1zm-1.1-.3c-.2 0-.4.2-.6.3-.4.3-.9.5-1.2.9-.1 0-.2-.1-.3-.1.5-.4 1-.9 1.6-1.1.1-.1.3 0 .5 0zm-1.3-.2h.3c-.5.3-1 .7-1.5 1.1-.1-.1-.2-.1-.3-.2.4-.3.9-.7 1.5-.9z"
       fill="#FFF"
       id="path11" />
    <path
       d="M37 48.9c-.4.3-.8.5-1.2.9-.1.2 0 .4.2.5.6.3 1.2.6 1.9.8.1.1.2-.1.3-.1.7-.6 1.5-1 2.4-1.3.2-.1.4 0 .6 0 .4.1.9.3 1.3.5-1.6-.1-3.2.5-4.4 1.6-.7.6-1.2 1.3-1.7 2-1.3-.4-2.5-.9-3.5-1.8-.4-.3-.8-.7-1-1.1-.3-.5-.2-.9.3-1.2.3-.2.6-.3 1-.4.1.3.3.5.6.7.4.2 1 .2 1.3-.1.3-.2.5-.6.6-1H37z"
       fill="#E1251B"
       id="path12" />
    <path
       d="M49.6 39.1v.3c0 .2.1.5.1.7.1.6.6 1.1 1.2 1 .6 0 1.2-.5 1.3-1.1 0-.3 0-.7-.1-1 0-.1 0-.3-.1-.4.6.2 1.2.4 1.5 1 .2.3.1.6 0 1s-.4.7-.7 1c-.5.4-1.2.6-1.8.5-.5 0-1.1-.1-1.6-.3-.4-.2-1-.7-.9-1.2.2-.6.6-1.2 1.1-1.5z"
       fill="#FFF"
       id="path13" />
    <path
       d="M55.8 45.3c-.2-.4-.5-.8-.9-1.1-.1 0-.2 0-.3-.1 0 .3.2.5.3.8.5.9.6 2.4-.4 3.1-.4.2-.8.2-1.2.2 0-.1.1-.2.1-.3 0-.4 0-.6-.1-1-.3 0-.3.3-.4.5-.1.5-.3 1-.7 1.3-.8.7-2 .5-2.7-.2-.6-.6-.7-1.5-.6-2.2.2.2.3.5.4.7.1.2.1.3.2.5.1.1.2.1.3.1 0-.7-.3-1.4-.8-1.9-.2-.3-.6-.5-.9-.6-.1 0-.3.1-.3.2 0 .2.1.3.2.4l.5.2c-.1.3-.2.6-.3 1-.3-.1-.6-.2-.9-.4-.4-.3-.7-.8-.8-1.3-.1-.6 0-1.3.2-1.8.3-.7.8-1.3 1.3-1.8-.1.1.6.7.7.8.7.5 1.5.6 2.3.5.8-.1 1.7-.2 2.3-.8.3-.3.6-.7.8-1.2.9.7 1.6 1.8 1.6 3 .3.4.2.9.1 1.4zM25.9 19.7c-.2.2-.3.4-.5.7-.3.5-.4 1.1-.5 1.7v.5c0 .2-.1.5 0 .7 0 1.1.3 2.2 1 3.1.4.6 1 1.1 1.8 1.1.4 0 .8-.3 1.1-.6.6-.7.9-1.5 1-2.4.2-1.6-.1-3.4-1.2-4.7-.3-.4-.8-.7-1.3-.7-.6-.1-1 .2-1.4.6zm8.8-.4c-.7.1-1.4.6-1.9 1.1-1.2 1.3-1.9 2.9-2.1 4.6-.1.9 0 1.9.4 2.6.4.7 1.3 1 2.1.7.5-.2.9-.5 1.3-.8 1.2-1.2 1.9-2.9 2.1-4.6.1-.9.1-1.9-.4-2.7-.2-.6-.8-1-1.5-.9z"
       fill="#FFF"
       id="path14" />
    <path
       d="M27.4 23.7c.1-.1.2-.2.2-.3.3-.3.8-.3 1.1.1.5.6.5 1.5.3 2.2-.1.4-.3.8-.7 1-.2.1-.3.1-.5.1-.6-.1-.8-.8-.9-1.3 0-.4 0-.9.2-1.3.1-.2.2-.4.3-.5zm5.1.1c.2-.2.5-.4.8-.2.3.1.5.4.6.7.2.7.1 1.7-.4 2.3-.2.3-.6.6-1 .6s-.6-.4-.7-.8c-.2-.8 0-1.9.7-2.6-.1.1 0 0 0 0z"
       fill="#161610"
       id="path15" />
    <path
       d="M46.7 28.8c0-1-.1-1.9-.2-2.8-.8 8-7.4 15-16.8 14.8-8.9-.2-12-5.6-12.3-6.3.9 2 2.3 3.8 4.1 5.1 5.1 3.9 12.4 4.7 18 1.2 2.5-1.6 4.6-3.9 5.9-6.5.7-1.6 1.2-3.5 1.3-5.5z"
       fill="#008FBE"
       id="path16" />
    <path
       d="M25.7 13.4c.2.1-.2.8-.5 1-.2.2-.5-.1-.2-.5s.6-.6.7-.5zm-.4-.4c.3.2.8.1 1.6-1 .8-1 .8-1.6.4-1.7-.4-.1-1.3.7-1.7 1.2-.3.6-.6 1.3-.3 1.5zm7.9 12.1c0 .3-.2.5-.4.4-.2 0-.3-.3-.2-.5 0-.3.2-.5.4-.4.2 0 .3.3.2.5zm-5.1-.9c-.2 0-.3.2-.3.5s.1.5.3.5c.2 0 .3-.2.3-.5 0-.2-.1-.5-.3-.5z"
       fill="#FFF"
       id="path17" />
    <path
       d="M269.6 44.2c0 3.9-3.1 7-7 7H67.3c-3.9 0-7-3.1-7-7s3.1-7 7-7h195.4c3.8 0 6.9 3.1 6.9 7z"
       fill="#00ADEE"
       id="path18" />
    <text
       xml:space="preserve"
       style="font-style:normal;font-weight:normal;font-size:40px;line-height:1.25;font-family:sans-serif;fill:#00adee;fill-opacity:1;stroke:none"
       x="70.507843"
       y="32.781792"
       id="text20"><tspan
         sodipodi:role="line"
         id="tspan20"
         x="70.507843"
         y="32.781792"
         style="font-style:normal;font-variant:normal;font-weight:normal;font-stretch:normal;font-family:'Berlin Sans FB';-inkscape-font-specification:'Berlin Sans FB';fill:#00adee;fill-opacity:1">Acueducto</tspan></text>
    <text
       xml:space="preserve"
       style="font-style:normal;font-weight:normal;font-size:40px;line-height:1.25;font-family:sans-serif;fill:#000000;fill-opacity:1;stroke:none"
       x="129.02863"
       y="74.466606"
       id="text21"><tspan
         sodipodi:role="line"
         id="tspan21"></tspan></text>
    <text
       xml:space="preserve"
       style="font-style:normal;font-weight:normal;font-size:10.6667px;line-height:1.25;font-family:sans-serif;fill:#ffffff;fill-opacity:1;stroke:none"
       x="93.418335"
       y="47.858864"
       id="text22"><tspan
         sodipodi:role="line"
         id="tspan22"
         x="93.418335"
         y="47.858864"
         style="font-style:normal;font-variant:normal;font-weight:normal;font-stretch:normal;font-size:10.6667px;font-family:'Berlin Sans FB';-inkscape-font-specification:'Berlin Sans FB';fill:#ffffff;fill-opacity:1">COMUNITARIO CARIBAYONA</tspan></text>
  </g>
</svg>
