<?xml version="1.0" encoding="UTF-8"?> <svg xmlns="http://www.w3.org/2000/svg" width="270" height="56" viewBox="0 0 270 56"><g fill="none"><path d="M56.6 43.5c-.1-1.3-.9-2.6-2.2-3.3-.1-.4-.2-.8-.5-1.1-.5-.6-1.2-.8-1.9-.9-.5-2.9-2.1-5.6-4.5-7.4.1-.4.1-.8.1-1.2v-.5c0-.9 0-1.7-.1-2.6-.4-2.6-1.4-5-2.7-7.2-1.7-2.8-3.9-5.2-5.8-7.9-.7-1-1.3-2.1-1.5-3.3-.2-.9-.1-1.8.1-2.7.2-1 .8-1.9 1.5-2.7.7-.8 1.5-1.4 2.4-1.9.1 0 .1-.1.2-.2V.3c-.1-.2-.2-.2-.4-.2-.5.1-1 .3-1.4.5-4 1.5-7.9 3.5-11.4 5.9-2.5 1.8-4.9 3.8-7 6.1-2.9 3.2-5.1 7.1-6.2 11.3-.6 2.2-.8 4.4-.5 6.6-.7.4-1.4.8-2.3.6-.9-.1-1.6-.7-2.2-1.3.3-.4.5-.9.5-1.4v-.8c-.1-.5-.2-.9-.5-1.3.3-.8.6-1.6.5-2.5-.1-.8-.4-1.6-.6-2.4-.1-.4-.1-.8 0-1.2.2-1 .9-1.7 1.4-2.5.3-.4.6-.9.5-1.4 0-.5-.3-1-.8-1.3-1.2-.8-3-.6-3.9.5-.8.9-1 2.4-.7 3.6 0 .1.2 1 .3 1-1.7-.6-4.2-.9-5.5.6-.6.7-.6 1.6-.4 2.4-.1.3-.3.7-.3 1-.1.6.1 1.2.3 1.7-.1.2-.2.5-.3.7-.3 1.1.1 2.4 1 3.1.8.6 1.9.8 2.9.7.1 0 .4-.1.4 0 .8.6 1.9.9 3 .7.6.7 1.4 1.4 2.2 1.8.7.4 1.5.6 2.3.7.9 0 1.8-.2 2.6-.6.4 1.1.8 2.2 1.5 3.2 1.9 3.1 5 5.5 8.4 6.7 0 1.4.1 2.8.3 4.1 0 .3.1.5.1.8-.7 0-1.5 0-2.2.1-2.4.3-4.9 1.1-6.8 2.7-.6.5-1.1 1.3-1.2 2.1 0 .4 0 .8.1 1.1.4 1 1.4 1.5 2.4 1.7 1.1.3 2.3.4 3.5.3 2.4-.2 4.8-1.2 6.7-2.7.8-.7 2.2-1.7 2.1-2.9 0-.4-.2-.8-.5-1-.4-.4-.9-.7-1.5-.9-.1-.4-.1-.7-.2-1.1-.1-1.2-.2-2.3-.3-3.5.5.1.9.2 1.4.2 1.5.2 2.9.2 4.4 0-.1.8-.1 1.6-.2 2.4l-.3 2.1c0 .1-.5.3-.6.3-.2.1-.4.3-.6.4-.5.4-.9 1-.8 1.7.2.9 1.1 1.8 1.8 2.3 2 1.6 4.5 2.7 7.1 2.9.7.1 1.4.1 2.1 0 .8-.1 1.9-.2 2.6-.7.6-.4 1.1-1.2 1.1-2s-.3-1.5-.7-2.1l-.9-.9c-.5-.4-1.1-.8-1.7-1.1-1.7-.8-3.5-1.3-5.4-1.3h-1.2c.1 0 .3-3.3.3-3.7l.1-.9c3.2-1 6.1-3 8.2-5.7 1-1.3 1.9-2.8 2.5-4.4 1.4 1.4 2.3 3.2 2.7 5.1-.3.1-.5.3-.7.5-.5.4-.7 1.1-.7 1.7-.5.3-.9.7-1.2 1.2-.5.7-.9 1.4-.9 2.3v.8c.1.7.3 1.3.8 1.8.4.4 1 .6 1.6.7.1.5.3 1 .7 1.3.4.5 1 .7 1.5.8.5.1 1 0 1.4-.1.4-.2.7-.4.9-.7.3.1.5.1.8.1.7 0 1.5-.3 1.9-1 .3-.5.5-1.1.4-1.7.6-.4.7-1.6.6-2.4z" fill="#161610"></path><path d="M46.7 28.8c-.1 1.9-.6 3.8-1.5 5.5-1.3 2.6-3.4 4.9-5.9 6.5-5.6 3.4-12.9 2.7-18-1.2-2.7-2.1-4.5-5.2-5.2-8.6-.7-3.6.2-7.3 1.7-10.6.1-.3.3-.6.4-.9 2.5-4.9 6.3-8.9 10.7-12.1C32 5.1 35.5 3.2 39 1.7c-1.3 1.3-2.2 3.1-2.3 4.9 0 1.3.2 2.5.7 3.7.4 1 1.1 1.9 1.7 2.7 1.4 1.8 2.8 3.6 4 5.5 2.2 3.2 3.7 6.6 3.6 10.3z" fill="#3CB4E5"></path><path d="M27.9 15.3c.8-.1 2.1.1 2 1.1-.1.4-.4.6-.7.6-.6 0-1.1 0-1.7.1-1.2.3-2.4.9-3.3 1.7-.1.1-.3.4-.5.4-.3.1-.2-.3-.1-.4.3-.6.7-1.1 1.1-1.6.4-.5 1-.9 1.5-1.2.4-.3.9-.5 1.4-.6.1 0 .2-.1.3-.1zm5.2.7c.1-.1.2-.2.4-.3.3-.2.6-.2 1-.2s.6.2.9.3c1.6.7 2.9 2.2 3.4 3.9 0 .1.1.4 0 .5-.1.2-.4-.2-.5-.3-1.1-1.4-2.7-2.4-4.5-2.7-.3-.1-.6-.1-.8-.3-.1-.2-.2-.5-.1-.7.1 0 .2-.1.2-.2zm-6.3 2.5c.5-.1 1.1 0 1.5.4 1.2.8 1.7 2.4 1.8 3.7.1 1.4 0 2.9-.8 4.1-.4.6-1 1.1-1.7 1.1s-1.4-.4-1.9-.9c-.9-1.1-1.3-2.6-1.3-4 0-1.1.2-2.2.8-3.2.3-.4.6-.8 1.1-1 .1-.1.3-.2.5-.2zm7.8.2c.5-.1 1.1 0 1.5.3.7.5 1.1 1.4 1.2 2.2 0 .4.1.7 0 1.1-.1 1.2-.4 2.4-1 3.5-.4.7-.8 1.4-1.4 1.9-.5.5-1.2 1-2 1.1-.6.1-1.3-.1-1.7-.5-.5-.5-.8-1.3-.9-2-.2-1.3.1-2.5.5-3.7.3-.9.8-1.7 1.4-2.4.7-.7 1.4-1.3 2.4-1.5z" fill="#161610"></path><path d="M21.3 28c.2-.5.5-.9 1-1.2.2-.1.4-.3.7-.3.2-.1.7-.2.8.1.1.2-.2.5-.4.5s-.4 0-.6.1c.2.7.6 1.3 1.1 1.8.9.9 2 1.5 3.1 2 2.1.8 4.5.9 6.7.4 1.5-.4 2.9-1.1 3.8-2.3.1-.1.2-.2.2-.3-.2-.1-.5-.1-.6-.3-.1-.2 0-.3.1-.5.3-.1.6.1.8.2.7.4 1.1 1.3 1.2 2.1 0 0 0 .1-.1.1h-.2c-.1-.5-.3-.9-.7-1.3-.4 2.3-1.4 4.4-3.1 6-1.3 1.2-3.1 2-4.9 2.1h-.9c-2-.1-3.9-1.1-5.2-2.7-.1-.1-.1-.3.1-.4.1-.1.2 0 .3 0 .2.3.5.5.7.8l.6-.3c0-.7 0-1.3-.1-1.9-.1-.6-.4-1.3-.6-1.9-.8-.5-1.6-1-2.1-1.8-.3-.4-.6-.9-.8-1.5-.3.2-.5.5-.7.8 0 .1-.1.1-.2.1-.1-.1-.1-.3 0-.4z" fill="#161610"></path><path d="M25.6 35.1c.8.7 1.8 1.2 2.8 1.4 1.8.4 3.7 0 5.3-1-1-.6-2.1-.9-3.2-1-.7 0-1.3.5-1.7 1-.1.1-.3.1-.3-.1.2-.4.5-.7.9-1.1-1.3.1-2.6.2-3.8.8z" fill="#E1251B"></path><path d="M2.4 21c.2-.2.5-.3.7-.4.9-.3 1.8-.2 2.7 0 1 .3 2.8.8 3 2 .2 1.3-1.3 1.9-2.3 2-1 .1-2.1-.1-3.1-.4-.6-.2-1.3-.6-1.6-1.2-.2-.7.1-1.5.6-2zm-.7 2.9c.4.3.8.6 1.2.7 1.7.6 3.7.9 5.4.1.4.7.5 1.5 0 2.2-.4.5-1 .8-1.6 1-1.5.3-3.2-.2-4.3-1.3-.5-.5-.9-1.2-.8-2 0-.3.1-.5.1-.7z" fill="#FFF"></path><path d="M4.6 30.1c-1.5-.1-3.2-1.1-3-2.8 0-.3.1-.5.2-.8 1.1 1.4 2.9 2.1 4.6 1.9.4 0 .8-.1 1.1-.3.1.4 0 .8-.3 1.1-.6.8-1.7 1-2.6.9zm5.5-1c-.3.6-.8 1.1-1.4 1.3-.7.3-1.5.3-2.2 0 .4-.2.8-.3 1.1-.6.2-.2.3-.5.6-.6.8-.5 1.4-1.2 1.9-1.9.2.5.2 1.2 0 1.8zm-.2-3c-.4.9-1 1.6-1.8 2.3-.1-.1-.1-.2-.2-.3.8-.5 1.5-1.4 1.4-2.4-.1-.5-.2-.9-.5-1.3.3-.3.6-.7.6-1.1 0-.4 0-.8-.1-1.2-.3-.6-.8-1.1-1.5-1.3h-.2l.3-.3c.4.1.9 0 1.2-.3.1-.1.1-.2.1-.3-.4 0-.8.3-1.2.2-.4-.2-.5-.7-.6-1.2-.1-.7-.1-1.4.2-2.1.3-.7.9-1.3 1.7-1.4h.1c.7-.1 1.4.1 1.9.5.3.2.4.6.3 1-.1.5-.5.9-.7 1.3-.3.5-.7 1-.9 1.5-.2.4-.2.8-.3 1.2 0 1.1.5 2.1.6 3.1.1.8-.1 1.5-.4 2.1zm13.9 22.8c.5.2 1 .6 1.4.9-.1.1-.2.1-.3.2-.5-.4-.9-.8-1.5-1.1.1 0 .2-.1.4 0zm-.9.1c.6.2 1.1.7 1.6 1.1-.1 0-.2.1-.2.1-.6-.5-1.2-.9-1.8-1.2.1 0 .2-.1.4 0zm-1.1.2c.8.2 1.5.7 2.1 1.2-.1.1-.3.1-.4.2-.7-.6-1.4-1.1-2.3-1.3.2-.1.4-.1.6-.1zm-5.3 3.1c0-.1 0-.2.1-.4.3-.6.9-1.1 1.4-1.3.8-.3 1.7-.1 2.5.1.9.2 1.7.6 2.4 1.2s1.2 1.2 1.6 2c-.7.2-1.5.4-2.2.5-.5.1-1.1.1-1.6.1-1.2 0-2.5-.2-3.5-.9-.5-.4-.8-.8-.7-1.3z" fill="#FFF"></path><path d="M27.6 53.1c-2.1 1.5-4.9 2.4-7.6 2.4-.9 0-1.8-.1-2.6-.5-.3-.2-.6-.4-.8-.7-.2-.3-.3-.7-.4-1 .3.4.7.7 1.1.9.7.4 1.6.6 2.5.6 1.9.1 3.8-.3 5.5-.9 1.3-.5 2.6-1.1 3.5-2 .2-.1.3-.3.5-.4-.5.6-1.1 1.1-1.7 1.6z" fill="#FFF"></path><path d="M28.3 49.2c.5.2.9.4 1.2.8.1.2 0 .4 0 .6-.2.4-.5.8-.8 1.1a9.5 9.5 0 01-3.8 2.1c-.6-.9-1.2-1.7-2.1-2.3-.9-.7-2.1-1.1-3.2-1.2h-.7c.5-.2.9-.4 1.4-.6.7-.1 1.3.2 1.9.6.5.2.9.5 1.2.9.6-.3 1.3-.5 1.9-.8.2-.1.3-.3.3-.5-.3-.4-.7-.7-1.2-.9.4-.1.9 0 1.4-.1 0 .3.1.7.4.9.3.4.9.5 1.4.4.3-.3.6-.6.7-1z" fill="#E1251B"></path><path d="M45.2 53.4c-.1.4-.2.8-.5 1.1-1.5 1.6-4.4 1.2-6.3.7-.7-.2-1.3-.4-2-.6-1.3-.5-2.6-1.3-3.7-2.3-.2-.2-.4-.5-.6-.7.5.5 1 .9 1.5 1.3.6.4 1.3.7 2 1 2 .8 4.3 1.3 6.5 1 .7-.1 1.5-.3 2.1-.7.4-.2.7-.5 1-.8z" fill="#FFF"></path><path d="M43.5 50.9c.7.3 1.8 1.2 1.3 2.1-.2.4-.6.7-1 .9-1 .6-2.2.7-3.3.7-.6 0-1.2-.1-1.7-.2-.3 0-.7-.1-1-.2-.1 0-.9-.3-1-.2.4-.6.8-1.1 1.3-1.6 1.1-1.1 2.9-1.8 4.5-1.8l.9.3zm-3.4-1.4c-.8.3-1.6.7-2.2 1.3-.1-.1-.3-.1-.4-.2.6-.5 1.3-.9 2-1.2.2-.1.4 0 .6.1zm-1.1-.3c-.2 0-.4.2-.6.3-.4.3-.9.5-1.2.9-.1 0-.2-.1-.3-.1.5-.4 1-.9 1.6-1.1.1-.1.3 0 .5 0zm-1.3-.2h.3c-.5.3-1 .7-1.5 1.1-.1-.1-.2-.1-.3-.2.4-.3.9-.7 1.5-.9z" fill="#FFF"></path><path d="M37 48.9c-.4.3-.8.5-1.2.9-.1.2 0 .4.2.5.6.3 1.2.6 1.9.8.1.1.2-.1.3-.1.7-.6 1.5-1 2.4-1.3.2-.1.4 0 .6 0 .4.1.9.3 1.3.5-1.6-.1-3.2.5-4.4 1.6-.7.6-1.2 1.3-1.7 2-1.3-.4-2.5-.9-3.5-1.8-.4-.3-.8-.7-1-1.1-.3-.5-.2-.9.3-1.2.3-.2.6-.3 1-.4.1.3.3.5.6.7.4.2 1 .2 1.3-.1.3-.2.5-.6.6-1H37z" fill="#E1251B"></path><path d="M49.6 39.1v.3c0 .2.1.5.1.7.1.6.6 1.1 1.2 1 .6 0 1.2-.5 1.3-1.1 0-.3 0-.7-.1-1 0-.1 0-.3-.1-.4.6.2 1.2.4 1.5 1 .2.3.1.6 0 1s-.4.7-.7 1c-.5.4-1.2.6-1.8.5-.5 0-1.1-.1-1.6-.3-.4-.2-1-.7-.9-1.2.2-.6.6-1.2 1.1-1.5z" fill="#FFF"></path><path d="M55.8 45.3c-.2-.4-.5-.8-.9-1.1-.1 0-.2 0-.3-.1 0 .3.2.5.3.8.5.9.6 2.4-.4 3.1-.4.2-.8.2-1.2.2 0-.1.1-.2.1-.3 0-.4 0-.6-.1-1-.3 0-.3.3-.4.5-.1.5-.3 1-.7 1.3-.8.7-2 .5-2.7-.2-.6-.6-.7-1.5-.6-2.2.2.2.3.5.4.7.1.2.1.3.2.5.1.1.2.1.3.1 0-.7-.3-1.4-.8-1.9-.2-.3-.6-.5-.9-.6-.1 0-.3.1-.3.2 0 .2.1.3.2.4l.5.2c-.1.3-.2.6-.3 1-.3-.1-.6-.2-.9-.4-.4-.3-.7-.8-.8-1.3-.1-.6 0-1.3.2-1.8.3-.7.8-1.3 1.3-1.8-.1.1.6.7.7.8.7.5 1.5.6 2.3.5.8-.1 1.7-.2 2.3-.8.3-.3.6-.7.8-1.2.9.7 1.6 1.8 1.6 3 .3.4.2.9.1 1.4zM25.9 19.7c-.2.2-.3.4-.5.7-.3.5-.4 1.1-.5 1.7v.5c0 .2-.1.5 0 .7 0 1.1.3 2.2 1 3.1.4.6 1 1.1 1.8 1.1.4 0 .8-.3 1.1-.6.6-.7.9-1.5 1-2.4.2-1.6-.1-3.4-1.2-4.7-.3-.4-.8-.7-1.3-.7-.6-.1-1 .2-1.4.6zm8.8-.4c-.7.1-1.4.6-1.9 1.1-1.2 1.3-1.9 2.9-2.1 4.6-.1.9 0 1.9.4 2.6.4.7 1.3 1 2.1.7.5-.2.9-.5 1.3-.8 1.2-1.2 1.9-2.9 2.1-4.6.1-.9.1-1.9-.4-2.7-.2-.6-.8-1-1.5-.9z" fill="#FFF"></path><path d="M27.4 23.7c.1-.1.2-.2.2-.3.3-.3.8-.3 1.1.1.5.6.5 1.5.3 2.2-.1.4-.3.8-.7 1-.2.1-.3.1-.5.1-.6-.1-.8-.8-.9-1.3 0-.4 0-.9.2-1.3.1-.2.2-.4.3-.5zm5.1.1c.2-.2.5-.4.8-.2.3.1.5.4.6.7.2.7.1 1.7-.4 2.3-.2.3-.6.6-1 .6s-.6-.4-.7-.8c-.2-.8 0-1.9.7-2.6-.1.1 0 0 0 0z" fill="#161610"></path><path d="M46.7 28.8c0-1-.1-1.9-.2-2.8-.8 8-7.4 15-16.8 14.8-8.9-.2-12-5.6-12.3-6.3.9 2 2.3 3.8 4.1 5.1 5.1 3.9 12.4 4.7 18 1.2 2.5-1.6 4.6-3.9 5.9-6.5.7-1.6 1.2-3.5 1.3-5.5z" fill="#008FBE"></path><path d="M25.7 13.4c.2.1-.2.8-.5 1-.2.2-.5-.1-.2-.5s.6-.6.7-.5zm-.4-.4c.3.2.8.1 1.6-1 .8-1 .8-1.6.4-1.7-.4-.1-1.3.7-1.7 1.2-.3.6-.6 1.3-.3 1.5zm7.9 12.1c0 .3-.2.5-.4.4-.2 0-.3-.3-.2-.5 0-.3.2-.5.4-.4.2 0 .3.3.2.5zm-5.1-.9c-.2 0-.3.2-.3.5s.1.5.3.5c.2 0 .3-.2.3-.5 0-.2-.1-.5-.3-.5z" fill="#FFF"></path><path d="M269.6 44.2c0 3.9-3.1 7-7 7H67.3c-3.9 0-7-3.1-7-7s3.1-7 7-7h195.4c3.8 0 6.9 3.1 6.9 7z" fill="#00ADEE"></path><path d="M85 40.7h5.4v.9h-2.2v6.1h-.9v-6.1H85v-.9zm12 2.9h-3.6v-2.9h-.9v7h.9v-3.2H97v3.2h.9v-7H97v2.9zm4.7.9h3.3v-.9h-3.3v-2.1h3.6v-.9h-4.5v7h4.7v-.9h-3.7v-2.2h-.1zm14 1.2c0 1.3-1.1 1.9-2.5 1.9h-2.4v-7h2.4c1.2 0 2.1.6 2.1 1.7 0 .8-.5 1.3-1.2 1.5.9.2 1.6 1 1.6 1.9zm-3.9-2.1h1.3c.7 0 1.3-.3 1.3-1 0-.6-.3-1-1.1-1h-1.5v2zm2.9 2c0-.8-.6-1.2-1.5-1.2h-1.4v2.4h1.4c.6 0 1.5-.2 1.5-1.2zm6.2-4.9l3 7h-1.1l-.7-1.7h-3.3l-.7 1.7H117l3.1-7h.8zm.8 4.4l-1.3-3.2-1.3 3.2h2.6zm2.4-3.5h2.2v6.1h.9v-6.1h2.2v-.9H124v.9h.1zm12 2h-3.6v-2.9h-.9v7h.9v-3.2h3.6v3.2h.9v-7h-.9v2.9zm6.9.9l2 3.2h-1.2l-1.8-3.1h-1.1v3.1h-.9v-7h2.5c1.8 0 2.2 1.1 2.2 2 0 .8-.7 1.6-1.7 1.8zm-.8-.8c.7 0 1.5-.2 1.5-1.1 0-.9-.7-1.1-1.5-1.1H141v2.2h1.2zm11.8.5c0 2.1-1.5 3.7-3.6 3.7s-3.6-1.6-3.6-3.7 1.5-3.7 3.6-3.7 3.6 1.6 3.6 3.7zm-1 0c0-1.5-1-2.8-2.6-2.8s-2.6 1.3-2.6 2.8c0 1.5 1 2.8 2.6 2.8 1.6-.1 2.6-1.3 2.6-2.8zm10 0c0 2.1-1.5 3.7-3.6 3.7s-3.6-1.6-3.6-3.7 1.5-3.7 3.6-3.7 3.6 1.6 3.6 3.7zm-1 0c0-1.5-1-2.8-2.6-2.8s-2.6 1.3-2.6 2.8c0 1.5 1 2.8 2.6 2.8 1.6-.1 2.6-1.3 2.6-2.8zm6.7 1.8l-2.3-5.3H165v7h.9V42l2.4 5.7h.6l2.4-5.7v5.7h.9v-7h-1.4l-2.1 5.3zm10.7-3.6c0-.4.3-1.1 1.4-1.1.5 0 1 .2 1.2.6l.8-.7c-.5-.6-1.3-.8-2-.8-1.7 0-2.4 1.1-2.4 2 0 2.7 3.4 1.7 3.4 3.3 0 .8-.8 1.2-1.4 1.2-.6 0-1.1-.2-1.5-.7l-.8.7c.5.7 1.3 1 2.2 1 1.3 0 2.4-.8 2.4-2.2.2-2.5-3.3-1.5-3.3-3.3zm10.5.2c0 .9-.5 2-2.2 2h-1.5v3.1h-.9v-7h2.5c1.7 0 2.1 1 2.1 1.9zm-1 0c0-.9-.7-1.1-1.5-1.1h-1.2v2.2h1.2c.8 0 1.5-.1 1.5-1.1zm4.1 1.9h3.3v-.9H193v-2.1h3.6v-.9h-4.5v7h4.7v-.9H193v-2.2zm9 2.4c-1.6 0-2.6-1.3-2.6-2.7 0-1.6 1-2.8 2.6-2.8.6 0 1.3.3 1.7.8l.8-.6c-.6-.7-1.5-1.1-2.4-1.1-2.1 0-3.6 1.6-3.6 3.7 0 1.8 1.4 3.6 3.6 3.6 1.6 0 2.4-.9 2.6-1.2l-.8-.6c-.4.6-1.1.9-1.9.9zm4.2.7h.9v-7h-.9v7zm6.6-6.9l3 7h-1.1L214 46h-3.3l-.7 1.7h-1.1l3.1-7h.8zm.8 4.4l-1.3-3.2-1.3 3.2h2.6zm4.8-4.4h-.9v7h4.1v-.9h-3.2v-6.1zm5.1 6.9h.9v-7h-.9v7zm4.4-5.2c0-.4.3-1.1 1.4-1.1.5 0 1 .2 1.2.6l.8-.7c-.5-.6-1.3-.8-2-.8-1.7 0-2.4 1.1-2.4 2 0 2.7 3.4 1.7 3.4 3.3 0 .8-.8 1.2-1.4 1.2-.6 0-1.1-.2-1.5-.7l-.8.7c.5.7 1.3 1 2.2 1 1.3 0 2.4-.8 2.4-2.2.1-2.5-3.3-1.5-3.3-3.3zm5.2-.8h2.2v6.1h.9v-6.1h2.2v-.9H233v.9h.1zm8.3.8c0-.4.3-1.1 1.4-1.1.5 0 1 .2 1.2.6l.8-.7c-.5-.6-1.3-.8-2-.8-1.7 0-2.4 1.1-2.4 2 0 2.7 3.4 1.7 3.4 3.3 0 .8-.8 1.2-1.4 1.2-.6 0-1.1-.2-1.5-.7l-.8.7c.5.7 1.3 1 2.2 1 1.3 0 2.4-.8 2.4-2.2.1-2.5-3.3-1.5-3.3-3.3z" fill="#FFF"></path><path d="M85 7h8.2v24.6h-5.4V12.7h-.1l-6.5 18.9h-4.1l-6.2-18.9h-.1v18.9h-5.4V7h8.2l5.7 16.1h.1L85 7zm17.2 10.5l-.1-2.7h-5.2v16.9h5.2v-7.1c0-3.4.5-5.7 4.5-5.7.8 0 1.5.1 2.2.3v-4.8c-.5-.1-1.1-.2-1.7-.2-2.4.1-3.8 1.2-4.9 3.3zm41.8 5.7L138.8 7h-5l-5.1 15.8h-.1L124.7 7h-5.9l7.3 24.6h4.7l5.4-17.1h.1l5.4 17.1h4.8L153.7 7h-5.5L144 23.2zm27.7 0v1.6h-12.1c.4 2 1.9 3.3 3.9 3.3 1.7 0 2.9-.9 3.7-2.1l3.7 2.7c-1.7 2.1-4.4 3.3-7.1 3.3-5.2 0-9.4-3.5-9.4-8.9s4.2-8.9 9.4-8.9c4.9.1 7.9 3.6 7.9 9zm-5.2-1.9c0-1.7-1.3-3.2-3.2-3.2-2.3 0-3.5 1.6-3.7 3.2h6.9zm14.6-11.6h-5.2v5h-3.3v4.2h3.3v8c0 3.7 2.7 5.1 6.2 5.1 1.2 0 2.5-.1 3.7-.5v-4.3c-.5.4-1.6.5-2.1.5-2.3 0-2.5-1.3-2.5-3.1V19h4.6v-4.2h-4.6V9.7h-.1zm40.2 13.5L216.1 7h-5l-5.2 15.8h-.1L202 7h-6l7.3 24.6h4.7l5.4-17.1h.1l5.4 17.1h4.8L231 7h-5.5l-4.2 16.2zm26.3-.1v8.6h-4.8v-2.1h-.1c-1.1 1.8-3.2 2.5-5.4 2.5-3.2 0-6-1.8-6-5.2 0-5.8 7.1-6 11.4-6 0-1.8-1.5-3-3.3-3-1.7 0-3.1.8-4.2 2l-2.8-2.9c1.9-1.8 4.7-2.7 7.4-2.7 6.1 0 7.8 3.1 7.8 8.8zm-4.8 1.2h-1.3c-1.6 0-5.2.1-5.2 2.4 0 1.3 1.3 1.8 2.5 1.8 2.1 0 4-1.1 4-3.2v-1zm7.4 7.4h5.2V5.4h-5.2v26.3zm9.1-26.3v26.3h5.2V5.4h-5.2z" fill="#00ADEE"></path></g></svg> 